<svg id="Layer_1" data-name="Layer 1" xmlns="http://www.w3.org/2000/svg" width="64" height="64" viewBox="0 0 64 64"><title>dollar-01</title><path d="M35,29.14V15.59c2.15,0.33,3.8,1.4,7.52,5.53l4-3.55C43.8,13.93,39.75,10.79,35,10.38V3.52H29.26v6.86c-5.45.91-10.41,5.29-10.41,11.07,0,6.2,4.71,10.16,10.41,11.65v15c-3.64-.5-5.62-3.47-7.52-6.28l-4.54,3.31c2.64,4.21,6.94,7.93,12.06,8.18v6.86H35V53.27c6.44-.08,12.56-4.87,12.56-11.73C47.6,34.18,41.73,30.13,35,29.14Zm-5.78-1.57a6.41,6.41,0,0,1-4.63-5.87,6.44,6.44,0,0,1,4.63-6.11v12ZM35,48.06V34.76c3.47,0.5,6.78,3.06,6.78,6.69C41.81,45.25,38.67,47.89,35,48.06Z"/></svg>